<?xml version="1.0" encoding="UTF-8" standalone="no"?><!-- Generator: Gravit.io --><svg xmlns="http://www.w3.org/2000/svg" xmlns:xlink="http://www.w3.org/1999/xlink" style="isolation:isolate" viewBox="901.032 392.848 497.665 378.402" width="497.665pt" height="378.402pt"><defs><clipPath id="_clipPath_LfEwn3CJGKpvel0ZLVNBzGTv5VjdIAfl"><rect x="901.032" y="392.848" width="497.665" height="378.402"/></clipPath></defs><g clip-path="url(#_clipPath_LfEwn3CJGKpvel0ZLVNBzGTv5VjdIAfl)"><path d=" M 1076.011 442.144 Q 1101.449 440.08 1102.724 444.137 C 1103.111 445.367 1103.322 447.652 1079.767 459.887 C 1071.681 463.21 1032.341 482.492 1023.201 486.992 Q 1066.587 463.641 1071.841 460.369 C 1077.576 456.798 1082.167 450.7 1080.392 447.566 Q 1078.618 444.431 1076.011 442.144 Z " fill="rgb(235,235,235)"/><defs><filter id="5Ov3HbmbN8MndZyOsqPomQmetsNNYtjY" x="-200%" y="-200%" width="400%" height="400%" filterUnits="objectBoundingBox" color-interpolation-filters="sRGB"><feGaussianBlur xmlns="http://www.w3.org/2000/svg" in="SourceGraphic" stdDeviation="8.587218125678056"/><feOffset xmlns="http://www.w3.org/2000/svg" dx="0" dy="0" result="pf_100_offsetBlur"/><feFlood xmlns="http://www.w3.org/2000/svg" flood-color="#5E1C59" flood-opacity="1"/><feComposite xmlns="http://www.w3.org/2000/svg" in2="pf_100_offsetBlur" operator="in" result="pf_100_dropShadow"/><feBlend xmlns="http://www.w3.org/2000/svg" in="SourceGraphic" in2="pf_100_dropShadow" mode="normal" result="_out_9fTYCt2tKCqrrJ6zOAGjO2RVXAydVNam"/><feOffset xmlns="http://www.w3.org/2000/svg" in="_out_9fTYCt2tKCqrrJ6zOAGjO2RVXAydVNam" dx="0" dy="0"/><feGaussianBlur xmlns="http://www.w3.org/2000/svg" stdDeviation="25.76165437703417" result="pf_101_offsetBlur"/><feComposite xmlns="http://www.w3.org/2000/svg" in="_out_9fTYCt2tKCqrrJ6zOAGjO2RVXAydVNam" in2="pf_101_offsetBlur" result="pf_101_inverse" operator="out"/><feFlood xmlns="http://www.w3.org/2000/svg" flood-color="#9E4770" flood-opacity="1" result="pf_101_color"/><feComposite xmlns="http://www.w3.org/2000/svg" in="pf_101_color" in2="pf_101_inverse" operator="in" result="pf_101_shadow"/><feComposite xmlns="http://www.w3.org/2000/svg" in="pf_101_shadow" in2="_out_9fTYCt2tKCqrrJ6zOAGjO2RVXAydVNam" operator="over" result="_out_XJuTGs8LK1wjlPT7baIpOlY3iKYKBjWb"/><feMerge><feMergeNode in="_out_XJuTGs8LK1wjlPT7baIpOlY3iKYKBjWb"/></feMerge></filter></defs><g filter="url(#5Ov3HbmbN8MndZyOsqPomQmetsNNYtjY)"><path d=" M 1076.304 442.3 C 1063.874 428.664 1045.97 420.108 1026.083 420.108 C 988.553 420.108 958.083 450.578 958.083 488.108 C 958.083 491.376 958.314 494.59 958.771 497.731 C 936.419 513.728 923.906 528.369 927.707 536.361 C 931.552 544.446 951.211 543.875 978.219 536.374 C 990.503 548.573 1007.42 556.108 1026.083 556.108 C 1063.614 556.108 1094.083 525.638 1094.083 488.108 C 1094.083 485.711 1093.959 483.342 1093.702 481.012 C 1115.332 465.332 1127.368 451.045 1123.631 443.187 C 1119.938 435.422 1101.657 435.641 1076.304 442.3 Z " fill-rule="evenodd" fill="rgb(77,6,75)"/></g><defs><filter id="zS3qrTMxhJf48X5OqildArJwR5CUAZaF" x="-200%" y="-200%" width="400%" height="400%" filterUnits="objectBoundingBox" color-interpolation-filters="sRGB"><feOffset xmlns="http://www.w3.org/2000/svg" in="SourceGraphic" dx="0" dy="0"/><feGaussianBlur xmlns="http://www.w3.org/2000/svg" stdDeviation="0.42936090628390283" result="pf_100_offsetBlur"/><feComposite xmlns="http://www.w3.org/2000/svg" in="SourceGraphic" in2="pf_100_offsetBlur" result="pf_100_inverse" operator="out"/><feFlood xmlns="http://www.w3.org/2000/svg" flood-color="#893566" flood-opacity="1" result="pf_100_color"/><feComposite xmlns="http://www.w3.org/2000/svg" in="pf_100_color" in2="pf_100_inverse" operator="in" result="pf_100_shadow"/><feComposite xmlns="http://www.w3.org/2000/svg" in="pf_100_shadow" in2="SourceGraphic" operator="over"/></filter></defs><g filter="url(#zS3qrTMxhJf48X5OqildArJwR5CUAZaF)"><path d=" M 1076.011 442.144 Q 1101.449 440.08 1102.724 444.137 C 1103.111 445.367 1103.322 447.652 1079.767 459.887 C 1071.681 463.21 1032.341 482.492 1023.201 486.992 Q 1066.587 463.641 1071.841 460.369 C 1077.576 456.798 1082.167 450.7 1080.392 447.566 Q 1078.618 444.431 1076.011 442.144 Z " fill="rgb(232,232,232)"/></g><defs><filter id="QpvWCOVsjnmpz9lbPNXqdGmnccuttAJX" x="-200%" y="-200%" width="400%" height="400%" filterUnits="objectBoundingBox" color-interpolation-filters="sRGB"><feOffset xmlns="http://www.w3.org/2000/svg" in="SourceGraphic" dx="0" dy="0"/><feGaussianBlur xmlns="http://www.w3.org/2000/svg" stdDeviation="0.42936090628390283" result="pf_100_offsetBlur"/><feComposite xmlns="http://www.w3.org/2000/svg" in="SourceGraphic" in2="pf_100_offsetBlur" result="pf_100_inverse" operator="out"/><feFlood xmlns="http://www.w3.org/2000/svg" flood-color="#893566" flood-opacity="1" result="pf_100_color"/><feComposite xmlns="http://www.w3.org/2000/svg" in="pf_100_color" in2="pf_100_inverse" operator="in" result="pf_100_shadow"/><feComposite xmlns="http://www.w3.org/2000/svg" in="pf_100_shadow" in2="SourceGraphic" operator="over"/></filter></defs><g filter="url(#QpvWCOVsjnmpz9lbPNXqdGmnccuttAJX)"><path d=" M 978.41 536.468 Q 952.972 538.532 951.698 534.475 C 951.311 533.245 951.1 530.96 974.655 518.725 C 982.741 515.402 1022.08 496.12 1031.221 491.62 Q 987.835 514.971 982.58 518.243 C 976.846 521.814 972.255 527.912 974.029 531.046 Q 975.803 534.181 978.41 536.468 Z " fill="rgb(232,232,232)"/></g><path d=" M 1324.403 440.884 Q 1349.841 438.821 1351.116 442.877 C 1351.502 444.107 1351.713 446.393 1328.159 458.627 C 1320.072 461.95 1280.733 481.232 1271.592 485.732 Q 1314.978 462.381 1320.233 459.109 C 1325.968 455.538 1330.558 449.441 1328.784 446.306 Q 1327.01 443.172 1324.403 440.884 Z " fill="rgb(235,235,235)"/><defs><filter id="vK7MN3Pe0dGLlWWoTmT2DB9iqzC6MGrF" x="-200%" y="-200%" width="400%" height="400%" filterUnits="objectBoundingBox" color-interpolation-filters="sRGB"><feGaussianBlur xmlns="http://www.w3.org/2000/svg" in="SourceGraphic" stdDeviation="8.587218125678056"/><feOffset xmlns="http://www.w3.org/2000/svg" dx="0" dy="0" result="pf_100_offsetBlur"/><feFlood xmlns="http://www.w3.org/2000/svg" flood-color="#5E1C59" flood-opacity="1"/><feComposite xmlns="http://www.w3.org/2000/svg" in2="pf_100_offsetBlur" operator="in" result="pf_100_dropShadow"/><feBlend xmlns="http://www.w3.org/2000/svg" in="SourceGraphic" in2="pf_100_dropShadow" mode="normal" result="_out_j0a7rsUYlNXiswOyu5q3lAqPohpQMGiL"/><feOffset xmlns="http://www.w3.org/2000/svg" in="_out_j0a7rsUYlNXiswOyu5q3lAqPohpQMGiL" dx="0" dy="0"/><feGaussianBlur xmlns="http://www.w3.org/2000/svg" stdDeviation="25.76165437703417" result="pf_101_offsetBlur"/><feComposite xmlns="http://www.w3.org/2000/svg" in="_out_j0a7rsUYlNXiswOyu5q3lAqPohpQMGiL" in2="pf_101_offsetBlur" result="pf_101_inverse" operator="out"/><feFlood xmlns="http://www.w3.org/2000/svg" flood-color="#9E4770" flood-opacity="1" result="pf_101_color"/><feComposite xmlns="http://www.w3.org/2000/svg" in="pf_101_color" in2="pf_101_inverse" operator="in" result="pf_101_shadow"/><feComposite xmlns="http://www.w3.org/2000/svg" in="pf_101_shadow" in2="_out_j0a7rsUYlNXiswOyu5q3lAqPohpQMGiL" operator="over" result="_out_HA4ovXiGo1YultalxXYQCyTtWW2mK5Ib"/><feMerge><feMergeNode in="_out_HA4ovXiGo1YultalxXYQCyTtWW2mK5Ib"/></feMerge></filter></defs><g filter="url(#vK7MN3Pe0dGLlWWoTmT2DB9iqzC6MGrF)"><path d=" M 1324.696 441.04 C 1312.266 427.404 1294.362 418.848 1274.475 418.848 C 1236.945 418.848 1206.475 449.318 1206.475 486.848 C 1206.475 490.116 1206.706 493.33 1207.162 496.472 C 1184.811 512.468 1172.298 527.109 1176.099 535.101 C 1179.944 543.186 1199.603 542.615 1226.611 535.114 C 1238.895 547.314 1255.812 554.848 1274.475 554.848 C 1312.005 554.848 1342.475 524.379 1342.475 486.848 C 1342.475 484.451 1342.351 482.082 1342.094 479.752 C 1363.724 464.072 1375.759 449.785 1372.022 441.927 C 1368.33 434.162 1350.048 434.381 1324.696 441.04 Z " fill-rule="evenodd" fill="rgb(77,6,75)"/></g><defs><filter id="b1ONp81Q35qIHUzKVSheFVsFO70UYBtr" x="-200%" y="-200%" width="400%" height="400%" filterUnits="objectBoundingBox" color-interpolation-filters="sRGB"><feOffset xmlns="http://www.w3.org/2000/svg" in="SourceGraphic" dx="0" dy="0"/><feGaussianBlur xmlns="http://www.w3.org/2000/svg" stdDeviation="0.42936090628390283" result="pf_100_offsetBlur"/><feComposite xmlns="http://www.w3.org/2000/svg" in="SourceGraphic" in2="pf_100_offsetBlur" result="pf_100_inverse" operator="out"/><feFlood xmlns="http://www.w3.org/2000/svg" flood-color="#893566" flood-opacity="1" result="pf_100_color"/><feComposite xmlns="http://www.w3.org/2000/svg" in="pf_100_color" in2="pf_100_inverse" operator="in" result="pf_100_shadow"/><feComposite xmlns="http://www.w3.org/2000/svg" in="pf_100_shadow" in2="SourceGraphic" operator="over"/></filter></defs><g filter="url(#b1ONp81Q35qIHUzKVSheFVsFO70UYBtr)"><path d=" M 1324.403 440.884 Q 1349.841 438.821 1351.116 442.877 C 1351.502 444.107 1351.713 446.393 1328.159 458.627 C 1320.072 461.95 1280.733 481.232 1271.592 485.732 Q 1314.978 462.381 1320.233 459.109 C 1325.968 455.538 1330.558 449.441 1328.784 446.306 Q 1327.01 443.172 1324.403 440.884 Z " fill="rgb(232,232,232)"/></g><defs><filter id="ctLhB6jxTSfGQzjiGM4AvZYtBnbiheY3" x="-200%" y="-200%" width="400%" height="400%" filterUnits="objectBoundingBox" color-interpolation-filters="sRGB"><feOffset xmlns="http://www.w3.org/2000/svg" in="SourceGraphic" dx="0" dy="0"/><feGaussianBlur xmlns="http://www.w3.org/2000/svg" stdDeviation="0.42936090628390283" result="pf_100_offsetBlur"/><feComposite xmlns="http://www.w3.org/2000/svg" in="SourceGraphic" in2="pf_100_offsetBlur" result="pf_100_inverse" operator="out"/><feFlood xmlns="http://www.w3.org/2000/svg" flood-color="#893566" flood-opacity="1" result="pf_100_color"/><feComposite xmlns="http://www.w3.org/2000/svg" in="pf_100_color" in2="pf_100_inverse" operator="in" result="pf_100_shadow"/><feComposite xmlns="http://www.w3.org/2000/svg" in="pf_100_shadow" in2="SourceGraphic" operator="over"/></filter></defs><g filter="url(#ctLhB6jxTSfGQzjiGM4AvZYtBnbiheY3)"><path d=" M 1226.802 535.208 Q 1201.364 537.272 1200.089 533.216 C 1199.703 531.985 1199.492 529.7 1223.046 517.466 C 1231.132 514.143 1270.472 494.86 1279.613 490.36 Q 1236.227 513.711 1230.972 516.983 C 1225.237 520.554 1220.647 526.652 1222.421 529.787 Q 1224.195 532.921 1226.802 535.208 Z " fill="rgb(232,232,232)"/></g><text transform="matrix(1,0,0,1,931.693,592.858)" style="font-family:'Montserrat';font-weight:300;font-size:36px;font-style:normal;fill:#000000;stroke:none;">Cosmic</text><text transform="matrix(1,0,0,1,1063.813,592.858)" style="font-family:'Montserrat';font-weight:300;font-size:36px;font-style:normal;fill:#747474;stroke:none;">OS</text><text transform="matrix(1,0,0,1,927.276,676.268)" style="font-family:'Montserrat';font-weight:300;font-size:60px;font-style:normal;fill:#000000;stroke:none;">Cosmic</text><text transform="matrix(1,0,0,1,1147.476,676.268)" style="font-family:'Montserrat';font-weight:300;font-size:60px;font-style:normal;fill:#747474;stroke:none;">OS</text><text transform="matrix(1,0,0,1,931.435,758.757)" style="font-family:'Montserrat';font-weight:300;font-size:60px;font-style:normal;font-variant-ligatures:none;letter-spacing:5;fill:#000000;stroke:none;">Cosmic</text><text transform="matrix(1,0,0,1,1181.635,758.757)" style="font-family:'Montserrat';font-weight:300;font-size:60px;font-style:normal;font-variant-ligatures:none;letter-spacing:5;fill:#747474;stroke:none;">OS</text><defs><filter id="uKMZBW5elOi4GF1zwq1khnnsDoV1OIbk" x="-200%" y="-200%" width="400%" height="400%" filterUnits="objectBoundingBox" color-interpolation-filters="sRGB"><feGaussianBlur xmlns="http://www.w3.org/2000/svg" in="SourceGraphic" stdDeviation="3.4348872502712227"/><feOffset xmlns="http://www.w3.org/2000/svg" dx="0" dy="0" result="pf_100_offsetBlur"/><feFlood xmlns="http://www.w3.org/2000/svg" flood-color="#5E1C59" flood-opacity="1"/><feComposite xmlns="http://www.w3.org/2000/svg" in2="pf_100_offsetBlur" operator="in" result="pf_100_dropShadow"/><feBlend xmlns="http://www.w3.org/2000/svg" in="SourceGraphic" in2="pf_100_dropShadow" mode="normal" result="_out_RJXL6eNIHjWSMoXWpzkShqpZfcNwwuO7"/><feOffset xmlns="http://www.w3.org/2000/svg" in="_out_RJXL6eNIHjWSMoXWpzkShqpZfcNwwuO7" dx="0" dy="0"/><feGaussianBlur xmlns="http://www.w3.org/2000/svg" stdDeviation="8.587218125678056" result="pf_101_offsetBlur"/><feComposite xmlns="http://www.w3.org/2000/svg" in="_out_RJXL6eNIHjWSMoXWpzkShqpZfcNwwuO7" in2="pf_101_offsetBlur" result="pf_101_inverse" operator="out"/><feFlood xmlns="http://www.w3.org/2000/svg" flood-color="#9E4770" flood-opacity="1" result="pf_101_color"/><feComposite xmlns="http://www.w3.org/2000/svg" in="pf_101_color" in2="pf_101_inverse" operator="in" result="pf_101_shadow"/><feComposite xmlns="http://www.w3.org/2000/svg" in="pf_101_shadow" in2="_out_RJXL6eNIHjWSMoXWpzkShqpZfcNwwuO7" operator="over" result="_out_gZdFfWTATM0nxtZFDZGpvF3RoHAFocGM"/><feMerge><feMergeNode in="_out_gZdFfWTATM0nxtZFDZGpvF3RoHAFocGM"/></feMerge></filter></defs><g filter="url(#uKMZBW5elOi4GF1zwq1khnnsDoV1OIbk)"><path d=" M 1008.733 731.666 C 1005.721 728.361 1001.382 726.287 996.562 726.287 C 987.466 726.287 980.081 733.672 980.081 742.768 C 980.081 743.56 980.137 744.339 980.247 745.1 C 974.83 748.977 971.797 752.526 972.718 754.463 C 973.65 756.422 978.415 756.284 984.961 754.466 C 987.938 757.423 992.038 759.249 996.562 759.249 C 1005.658 759.249 1013.043 751.864 1013.043 742.768 C 1013.043 742.187 1013.012 741.613 1012.95 741.048 C 1018.193 737.248 1021.11 733.785 1020.204 731.881 C 1019.309 729.999 1014.878 730.052 1008.733 731.666 Z " fill-rule="evenodd" fill="rgb(77,6,75)"/></g><defs><filter id="OvPzVWfd8ctOEznVd2KFDzWb56SGW0g5" x="-200%" y="-200%" width="400%" height="400%" filterUnits="objectBoundingBox" color-interpolation-filters="sRGB"><feOffset xmlns="http://www.w3.org/2000/svg" in="SourceGraphic" dx="0" dy="0"/><feGaussianBlur xmlns="http://www.w3.org/2000/svg" stdDeviation="0.42936090628390283" result="pf_100_offsetBlur"/><feComposite xmlns="http://www.w3.org/2000/svg" in="SourceGraphic" in2="pf_100_offsetBlur" result="pf_100_inverse" operator="out"/><feFlood xmlns="http://www.w3.org/2000/svg" flood-color="#893566" flood-opacity="1" result="pf_100_color"/><feComposite xmlns="http://www.w3.org/2000/svg" in="pf_100_color" in2="pf_100_inverse" operator="in" result="pf_100_shadow"/><feComposite xmlns="http://www.w3.org/2000/svg" in="pf_100_shadow" in2="SourceGraphic" operator="over"/></filter></defs><g filter="url(#OvPzVWfd8ctOEznVd2KFDzWb56SGW0g5)"><path d=" M 1008.663 731.628 Q 1014.828 731.128 1015.137 732.111 C 1015.231 732.409 1015.282 732.963 1009.573 735.928 C 1007.613 736.734 998.078 741.407 995.863 742.498 Q 1006.378 736.838 1007.652 736.045 C 1009.042 735.18 1010.154 733.702 1009.724 732.942 Q 1009.294 732.182 1008.663 731.628 Z " fill="rgb(232,232,232)"/></g><defs><filter id="jG92ujRiUilYdD4d3DprbspfSgpFBbY0" x="-200%" y="-200%" width="400%" height="400%" filterUnits="objectBoundingBox" color-interpolation-filters="sRGB"><feOffset xmlns="http://www.w3.org/2000/svg" in="SourceGraphic" dx="0" dy="0"/><feGaussianBlur xmlns="http://www.w3.org/2000/svg" stdDeviation="0.42936090628390283" result="pf_100_offsetBlur"/><feComposite xmlns="http://www.w3.org/2000/svg" in="SourceGraphic" in2="pf_100_offsetBlur" result="pf_100_inverse" operator="out"/><feFlood xmlns="http://www.w3.org/2000/svg" flood-color="#893566" flood-opacity="1" result="pf_100_color"/><feComposite xmlns="http://www.w3.org/2000/svg" in="pf_100_color" in2="pf_100_inverse" operator="in" result="pf_100_shadow"/><feComposite xmlns="http://www.w3.org/2000/svg" in="pf_100_shadow" in2="SourceGraphic" operator="over"/></filter></defs><g filter="url(#jG92ujRiUilYdD4d3DprbspfSgpFBbY0)"><path d=" M 985.007 754.489 Q 978.842 754.989 978.533 754.006 C 978.439 753.708 978.388 753.154 984.097 750.189 C 986.057 749.383 995.591 744.71 997.807 743.619 Q 987.291 749.279 986.018 750.072 C 984.628 750.937 983.515 752.415 983.945 753.175 Q 984.375 753.935 985.007 754.489 Z " fill="rgb(232,232,232)"/></g></g></svg>